<?xml version="1.0" encoding="utf-8"?>
<!-- Generator: Adobe Illustrator 27.2.0, SVG Export Plug-In . SVG Version: 6.00 Build 0)  -->
<svg version="1.1" id="Layer_1" xmlns="http://www.w3.org/2000/svg" xmlns:xlink="http://www.w3.org/1999/xlink" x="0px" y="0px"
	 viewBox="0 0 1000 1000" style="enable-background:new 0 0 1000 1000;" xml:space="preserve">
<style type="text/css">
	.st0{fill-rule:evenodd;clip-rule:evenodd;fill:#F1F2F2;}
	.st1{fill-rule:evenodd;clip-rule:evenodd;fill:#184781;}
	.st2{fill-rule:evenodd;clip-rule:evenodd;fill:#669AD2;}
	.st3{fill-rule:evenodd;clip-rule:evenodd;fill:#FFFFFF;}
	.st4{fill-rule:evenodd;clip-rule:evenodd;fill:#035A9C;}
</style>
<rect class="st0" width="1000.47" height="1000.47"/>
<path id="path2" class="st1" d="M476.77,61.46c14.38-8.07,32.07-8.07,46.43,0c71.03,39.87,284.78,159.87,355.83,199.73
	c14.38,8.05,23.23,22.95,23.23,39.08c0,79.73,0,319.71,0,399.44c0,16.13-8.85,31.04-23.23,39.1
	C808,778.68,594.25,898.68,523.2,938.55c-14.38,8.07-32.07,8.07-46.43,0C405.74,898.68,192,778.68,120.95,738.82
	c-14.35-8.07-23.2-22.95-23.2-39.08c0-79.73,0-319.71,0-399.44c0-16.13,8.85-31.04,23.23-39.1
	C191.98,221.33,405.77,101.33,476.77,61.46L476.77,61.46z"/>
<path id="path4" class="st2" d="M104.18,720.27c-5.63-7.54-6.44-14.69-6.44-24.33c0-79.27,0-317.87,0-397.15
	c0-16.05,8.83-30.87,23.16-38.87c70.78-39.63,283.8-158.93,354.58-198.59c14.33-8.02,33.75-7.85,48.08,0.17
	c70.78,39.63,283.08,157.92,353.86,197.55c5.72,3.22,10.08,7.09,13.97,12.19L104.18,720.27z"/>
<path id="path6" class="st3" d="M500,203.61c163.59,0,296.4,132.81,296.4,296.4S663.59,796.41,500,796.41S203.6,663.6,203.6,500.01
	S336.41,203.61,500,203.61z M500,351.81c81.79,0,148.2,66.39,148.2,148.2c0,81.79-66.41,148.2-148.2,148.2s-148.2-66.41-148.2-148.2
	C351.8,418.2,418.19,351.81,500,351.81z"/>
<path id="path8" class="st4" d="M891.35,271.46c10.92,10.23,10.71,25.64,10.71,37.77c0,80.35-0.68,308.87,0.19,389.21
	c0.08,8.38-2.69,17.21-6.84,23.86L491.38,500L891.35,271.46z"/>
</svg>
