<?xml version="1.0" encoding="utf-8"?>
<!-- Generator: Adobe Illustrator 27.2.0, SVG Export Plug-In . SVG Version: 6.00 Build 0)  -->
<svg version="1.1" id="Layer_1" xmlns="http://www.w3.org/2000/svg" xmlns:xlink="http://www.w3.org/1999/xlink" x="0px" y="0px"
	 viewBox="0 0 1000 1000" style="enable-background:new 0 0 1000 1000;" xml:space="preserve">
<style type="text/css">
	.st0{fill:#F1F2F2;}
	.st1{fill:#5482A2;}
	.st2{fill:#E67125;}
</style>
<rect class="st0" width="1000" height="1000"/>
<g>
	<path class="st1" d="M393.61,707.03c0,0-28.94,16.83,20.6,22.53c60.01,6.85,90.69,5.86,156.82-6.65c0,0,17.39,10.9,41.67,20.35
		C464.44,806.79,277.16,739.56,393.61,707.03"/>
	<path class="st1" d="M375.49,624.11c0,0-32.46,24.03,17.11,29.16c64.11,6.61,114.74,7.15,202.34-9.71c0,0,12.12,12.28,31.17,19
		C446.87,714.97,247.21,666.69,375.49,624.11"/>
	<path class="st2" d="M528.22,483.45c36.53,42.06-9.6,79.91-9.6,79.91s92.76-47.89,50.16-107.85c-39.79-55.92-70.3-83.7,94.88-179.5
		C663.66,276.01,404.39,340.76,528.22,483.45"/>
	<path class="st1" d="M724.31,768.36c0,0,21.42,17.65-23.59,31.3c-85.58,25.92-356.18,33.75-431.36,1.03
		c-27.02-11.76,23.65-28.07,39.59-31.49c16.62-3.6,26.12-2.93,26.12-2.93c-30.05-21.17-194.24,41.57-83.4,59.54
		C553.96,874.82,802.72,803.73,724.31,768.36"/>
	<path class="st1" d="M407.53,538.2c0,0-137.65,32.69-48.74,44.57c37.54,5.03,112.37,3.89,182.07-1.95
		c56.96-4.81,114.16-15.02,114.16-15.02s-20.09,8.6-34.62,18.52c-139.78,36.76-409.81,19.66-332.07-17.94
		C354.07,534.59,407.53,538.2,407.53,538.2"/>
	<path class="st1" d="M654.45,676.22c142.09-73.84,76.39-144.79,30.54-135.23c-11.24,2.34-16.25,4.37-16.25,4.37
		s4.17-6.54,12.14-9.37c90.72-31.89,160.49,94.07-29.28,143.95C651.59,679.94,653.79,677.97,654.45,676.22"/>
	<path class="st2" d="M568.78,121.32c0,0,78.69,78.72-74.64,199.77c-122.95,97.1-28.04,152.47-0.05,215.72
		C422.32,472.06,369.65,415.05,404.99,362C456.85,284.12,600.53,246.36,568.78,121.32"/>
	<path class="st1" d="M421.49,876.3c136.39,8.73,345.83-4.84,350.79-69.38c0,0-9.53,24.47-112.72,43.89
		c-116.41,21.91-259.99,19.35-345.15,5.31C314.42,856.12,331.85,870.55,421.49,876.3"/>
</g>
</svg>
