<?xml version="1.0" encoding="utf-8"?>
<!-- Generator: Adobe Illustrator 27.2.0, SVG Export Plug-In . SVG Version: 6.00 Build 0)  -->
<svg version="1.1" id="Layer_1" xmlns="http://www.w3.org/2000/svg" xmlns:xlink="http://www.w3.org/1999/xlink" x="0px" y="0px"
	 viewBox="0 0 1000 1000" style="enable-background:new 0 0 1000 1000;" xml:space="preserve">
<style type="text/css">
	.st0{fill:#F1CA22;}
	.st1{fill:#010101;}
</style>
<rect class="st0" width="1000" height="1000"/>
<path class="st1" d="M261.09,841.88l77.41-46.85c14.93,26.48,28.52,48.88,61.11,48.88c31.24,0,50.93-12.22,50.93-59.75V460.95h95.06
	v324.56c0,98.46-57.71,143.27-141.92,143.27C327.64,928.79,283.5,889.4,261.09,841.88"/>
<path class="st1" d="M597.24,831.7l77.4-44.82c20.38,33.28,46.86,57.72,93.71,57.72c39.39,0,64.51-19.69,64.51-46.85
	c0-32.59-25.8-44.14-69.26-63.14l-23.76-10.19c-68.59-29.19-114.08-65.86-114.08-143.27c0-71.3,54.32-125.62,139.2-125.62
	c60.43,0,103.89,21.05,135.12,76.05l-74.01,47.53c-16.3-29.2-33.95-40.74-61.11-40.74c-27.84,0-45.5,17.65-45.5,40.74
	c0,28.52,17.66,40.07,58.39,57.72l23.76,10.18c80.8,34.63,126.3,69.94,126.3,149.38c0,85.56-67.22,132.41-157.53,132.41
	C682.11,928.8,625.07,886.7,597.24,831.7"/>
</svg>
