<?xml version="1.0" encoding="utf-8"?>
<!-- Generator: Adobe Illustrator 27.2.0, SVG Export Plug-In . SVG Version: 6.00 Build 0)  -->
<svg version="1.1" id="Layer_1" xmlns="http://www.w3.org/2000/svg" xmlns:xlink="http://www.w3.org/1999/xlink" x="0px" y="0px"
	 viewBox="0 0 1000 1000" style="enable-background:new 0 0 1000 1000;" xml:space="preserve">
<style type="text/css">
	.st0{fill:#03694C;}
	.st1{fill:#FFFFFF;}
</style>
<rect class="st0" width="1000" height="1000"/>
<path class="st1" d="M526.99,204.89c-13.1-15.54-24.38-31.32-26.68-34.6c-0.24-0.24-0.61-0.24-0.85,0
	c-2.3,3.28-13.58,19.06-26.68,34.6c-112.42,143.37,17.71,240.13,17.71,240.13l1.09,0.73c0.97,14.93,3.4,36.42,3.4,36.42h4.85h4.85
	c0,0,2.43-21.37,3.4-36.42l1.09-0.85C509.29,445.02,639.41,348.27,526.99,204.89z M499.83,442.96c0,0-5.82-4.98-7.4-7.53v-0.24
	l7.03-156.12c0-0.49,0.73-0.49,0.73,0l7.03,156.12v0.24C505.65,437.98,499.83,442.96,499.83,442.96z"/>
<path class="st1" d="M156.76,614.97l-43.42-105.28l-0.1-0.29H79.47v7.08h5.45c1.65,0,3.21,0.68,4.38,1.84
	c1.17,1.16,1.75,2.71,1.75,4.36l-0.97,105.96c0,3.3-2.73,6.01-6.04,6.11l-5.55,0.1v6.98h32.9v-6.98l-3.41-0.1
	c-3.31-0.1-6.04-2.81-6.04-6.11v-99.85l47.31,113.04c0.68,1.65,2.24,2.71,3.99,2.71c1.75,0,3.31-1.07,3.99-2.71l46.24-110.52
	l0.68,97.33c0,3.39-2.73,6.11-6.13,6.2h-3.5v6.98h38.55v-6.98h-5.26c-3.31,0-6.04-2.81-6.13-6.11l-0.29-105.96
	c0-3.39,2.73-6.11,6.04-6.2l5.65-0.1v-7.08h-32.9L156.76,614.97z"/>
<path class="st1" d="M459.48,633.01c-1.07-1.07-1.66-2.52-1.66-4.26v-51.9c0-9.88-2.93-17.62-8.78-23.14
	c-5.76-5.52-13.76-8.33-23.72-8.33c-13.96,0-24.99,5.62-32.7,16.66c-0.1,0.19-0.39,0.29-0.68,0.29c-0.29,0-0.49-0.19-0.49-0.48
	l-3.61-13.85h-6.05l-15.52,8.81v4.84h4c1.85,0,3.42,0.48,4.49,1.45c1.07,0.97,1.66,2.42,1.66,4.45v61.1c0,1.74-0.59,3.2-1.66,4.26
	c-1.07,1.07-2.54,1.65-4.29,1.65h-3.9v7.07h35.72v-7.07h-3.9c-1.76,0-3.22-0.58-4.29-1.65c-1.07-1.06-1.66-2.52-1.66-4.26v-40.48
	c0-5.13,1.17-10.26,3.32-15.3c2.24-4.94,5.56-9.1,9.95-12.3c4.39-3.2,9.66-4.74,15.71-4.74c6.83,0,12.01,2.13,15.23,6.39
	c3.22,4.26,4.88,9.78,4.88,16.36v49.96c0,1.74-0.59,3.2-1.66,4.26c-1.07,1.06-2.54,1.65-4.29,1.65h-3.9v7.07h35.72v-7.07h-3.9
	C462.02,634.65,460.65,634.07,459.48,633.01z"/>
<path class="st1" d="M785.84,517.39c-9.87-5.26-20.91-7.98-32.82-7.98h-46.46v7.11h4.55c1.74,0,3.29,0.68,4.84,2.24
	c1.45,1.46,2.23,3.12,2.23,4.87v104.77c0,1.75-0.77,3.41-2.23,4.87c-1.45,1.46-3.1,2.24-4.84,2.24h-4.55v7.11h46.46
	c11.91,0,22.94-2.73,32.82-7.98c9.87-5.26,17.91-13.05,23.72-22.98c5.81-9.93,8.81-21.91,8.81-35.54c0-13.63-3-25.51-8.81-35.54
	C803.65,530.43,795.71,522.64,785.84,517.39z M799.68,575.9c0,12.46-2.23,22.98-6.58,31.45c-4.36,8.47-10.16,14.8-17.33,18.89
	c-7.16,4.09-15.1,6.13-23.62,6.13h-9.39c-1.74,0-3.29-0.68-4.84-2.24c-1.45-1.46-2.23-3.12-2.23-4.87v-98.83
	c0-1.75,0.68-3.31,2.23-4.87c1.45-1.46,3.1-2.24,4.84-2.24h9.39c8.52,0,16.46,2.04,23.62,6.13c7.16,4.09,12.97,10.42,17.33,18.89
	C797.45,552.83,799.68,563.44,799.68,575.9z"/>
<path class="st1" d="M928.19,583.01c-4.3-4.97-12.59-9.15-22.34-11.39c13.47-6.72,20.39-16.16,20.39-28.33
	c0-6.62-1.75-12.56-5.27-17.62c-3.51-5.06-8.49-9.15-14.83-11.98c-6.35-2.82-13.77-4.28-22.16-4.28h-52.6v7.11h4.2
	c1.76,0,3.32,0.68,4.88,2.24c1.46,1.46,2.24,3.12,2.24,4.87v104.77c0,1.75-0.78,3.41-2.24,4.87c-1.46,1.46-3.12,2.24-4.88,2.24H831
	v7.11h57.09c8.68,0,16.78-1.46,24.1-4.38c7.32-2.92,13.17-7.2,17.37-12.85c4.29-5.65,6.44-12.56,6.44-20.54
	C935.9,596.25,933.37,588.95,928.19,583.01z M862.71,630.23c-1.46-1.46-2.24-3.12-2.24-4.87v-47.03h27.13
	c9.56,0,16.88,2.43,21.95,7.3c5.08,4.87,7.61,11.2,7.61,18.99c0,4.67-1.18,9.25-3.32,13.44c-2.25,4.28-5.57,7.69-10.05,10.32
	c-4.39,2.63-9.86,3.99-16.2,3.99h-20.01C865.84,632.47,864.28,631.69,862.71,630.23z M860.57,568.31v-41.77
	c0-1.75,0.68-3.31,2.24-4.87c1.46-1.46,3.12-2.24,4.88-2.24h12.88c9.27,0,16.1,2.34,20.4,6.82c4.29,4.58,6.44,10.42,6.44,17.62
	c0,7.4-2.05,13.34-6.05,17.82c-4.01,4.38-10.05,6.62-18.05,6.62H860.57z"/>
<path class="st1" d="M323.49,551.58c-7.46-4.07-15.79-6.21-24.79-6.21c-9.01,0-17.43,2.04-24.79,6.21
	c-7.46,4.08-13.36,9.99-17.72,17.47c-4.36,7.47-6.58,16.21-6.58,25.91c0,9.7,2.23,18.44,6.58,25.91
	c4.36,7.47,10.26,13.39,17.72,17.47c7.46,4.07,15.79,6.21,24.79,6.21c9.01,0,17.43-2.04,24.79-6.21
	c7.46-4.08,13.36-9.99,17.72-17.47c4.36-7.47,6.58-16.21,6.58-25.91c0-9.7-2.23-18.44-6.58-25.91
	C336.86,561.58,330.95,555.76,323.49,551.58z M330.66,594.96c0,11.94-2.91,21.64-8.72,28.62c-5.71,6.99-13.56,10.58-23.24,10.58
	c-9.68,0-17.53-3.59-23.24-10.58c-5.81-6.99-8.72-16.69-8.72-28.62c0-11.94,2.91-21.64,8.72-28.62
	c5.71-6.99,13.56-10.58,23.24-10.58c9.68,0,17.53,3.59,23.24,10.58C327.76,573.42,330.66,583.02,330.66,594.96z"/>
<path class="st1" d="M666.69,551.58c-7.46-4.07-15.79-6.21-24.79-6.21c-9.01,0-17.43,2.04-24.79,6.21
	c-7.46,4.08-13.36,9.99-17.72,17.47c-4.36,7.47-6.58,16.21-6.58,25.91c0,9.7,2.23,18.44,6.58,25.91
	c4.36,7.47,10.26,13.39,17.72,17.47c7.46,4.07,15.79,6.21,24.79,6.21c9.01,0,17.43-2.04,24.79-6.21
	c7.46-4.08,13.36-9.99,17.72-17.47c4.36-7.47,6.58-16.21,6.58-25.91c0-9.7-2.23-18.44-6.58-25.91
	C680.06,561.58,674.05,555.76,666.69,551.58z M673.86,594.96c0,11.94-2.91,21.64-8.72,28.62c-5.71,6.99-13.56,10.58-23.24,10.58
	c-9.68,0-17.53-3.59-23.24-10.58c-5.81-6.99-8.72-16.69-8.72-28.62c0-12.03,2.91-21.64,8.72-28.62
	c5.71-6.99,13.56-10.58,23.24-10.58c9.68,0,17.53,3.59,23.24,10.58C670.86,573.42,673.86,583.02,673.86,594.96z"/>
<path class="st1" d="M528.29,545.37c-7.8,0-14.92,1.66-21.36,4.97c-6.44,3.31-11.51,7.8-15.12,13.55
	c-3.61,5.65-5.46,11.99-5.46,18.72c0,6.04,1.37,11.6,4.19,16.57c2.73,4.78,6.44,8.77,11.12,12.09l-13.95,18.91
	c-1.76,2.34-1.95,5.46-0.68,7.99c1.37,2.63,3.9,4.19,6.83,4.19h4c-3.9,2.63-7.02,5.75-9.17,9.45c-2.54,4.19-3.8,8.58-3.8,13.06
	c0,8.38,3.71,15.3,11.02,20.47c7.22,5.17,17.36,7.8,30.14,7.8c8.88,0,17.36-1.46,25.07-4.29c7.8-2.83,14.14-7.02,18.82-12.48
	c4.78-5.46,7.22-12.09,7.22-19.69c0-7.99-2.93-13.65-9.75-19.11c-5.85-4.58-15.02-7.02-26.43-7.02h-39.01c-0.1,0-0.2-0.1-0.2-0.1
	s-0.1-0.19,0-0.29l10.14-13.65c2.73,1.27,5.27,2.05,7.51,2.53c2.34,0.49,4.97,0.68,7.9,0.68c8.19,0,15.61-1.66,22.04-4.97
	c6.44-3.31,11.61-7.8,15.31-13.55c3.71-5.65,5.56-11.99,5.56-18.72c0-7.21-3.51-20.37-13.07-27.1c0-0.1,0.1-0.1,0.1-0.1l20.97,2.34
	v-9.65h-33.55C539.4,546.25,533.94,545.37,528.29,545.37z M539.99,606.3c-3.71,1.95-7.7,3.02-11.7,3.02
	c-6.53,0-12.29-2.34-17.17-6.92c-4.88-4.58-7.31-11.31-7.31-19.89c0-8.58,2.44-15.3,7.31-19.89c4.88-4.58,10.63-6.92,17.17-6.92
	c4.1,0,8,0.98,11.7,3.02c3.71,1.95,6.73,4.97,9.17,8.97c2.34,4,3.61,8.97,3.61,14.82c0,5.95-1.17,10.92-3.61,14.82
	C546.82,601.33,543.69,604.35,539.99,606.3z M513.56,642.27h26.43c7.32,0,12,1.46,15.12,4.58c3.12,3.12,4.68,7.31,4.68,12.18
	c0,7.12-2.83,12.96-8.48,17.35c-5.66,4.39-13.26,6.63-22.63,6.63c-8.19,0-15.02-1.85-19.99-5.36c-4.97-3.51-7.51-8.87-7.51-15.69
	c0-4.29,1.17-8.29,3.51-11.8C507.02,646.66,509.85,644.12,513.56,642.27z"/>
</svg>
