<?xml version="1.0" encoding="utf-8"?>
<!-- Generator: Adobe Illustrator 27.2.0, SVG Export Plug-In . SVG Version: 6.00 Build 0)  -->
<svg version="1.1" id="Layer_1" xmlns="http://www.w3.org/2000/svg" xmlns:xlink="http://www.w3.org/1999/xlink" x="0px" y="0px"
	 viewBox="0 0 1000 1000" style="enable-background:new 0 0 1000 1000;" xml:space="preserve">
<style type="text/css">
	.st0{fill:#F1F2F2;}
	.st1{fill:#037690;}
	.st2{fill:#F29220;}
	.st3{fill-rule:evenodd;clip-rule:evenodd;fill:#F29220;}
	.st4{fill-rule:evenodd;clip-rule:evenodd;fill:#037690;}
</style>
<rect class="st0" width="1000" height="1000"/>
<g>
	<path class="st1" d="M294.71,660.46H264.2c-1.08-51.5-4.05-99.94-8.91-145.31h-0.27l-46.46,145.31h-23.23l-46.18-145.31h-0.27
		c-3.42,43.57-5.58,92.01-6.48,145.31h-27.82c1.8-64.82,6.3-125.59,13.5-182.32h37.82l44.02,133.96h0.27l44.3-133.96h36.19
		C288.59,544.58,293.27,605.36,294.71,660.46"/>
	<path class="st1" d="M427.06,525.95c-12.42,67.42-28.81,116.42-49.16,146.98c-15.85,23.55-33.22,35.33-52.13,35.33
		c-5.04,0-11.26-1.52-18.63-4.54v-16.25c3.6,0.53,7.83,0.81,12.7,0.81c8.82,0,15.93-2.44,21.34-7.3c6.48-5.93,9.72-12.59,9.72-19.98
		c0-5.05-2.53-15.39-7.56-31.05l-33.49-103.99h29.98l24.03,77.78c5.4,17.66,7.65,29.99,6.75,37.02
		c13.15-35.11,22.33-73.38,27.56-114.79H427.06z"/>
	<polygon class="st2" points="833.27,660.46 746.57,660.46 746.57,478.14 775.75,478.14 775.75,638.04 833.27,638.04 	"/>
	<path class="st3" d="M723.89,664.86l-33.51-16.52c2.98-2.45,5.82-5.09,8.38-8.14c14.23-16.73,21.35-41.49,21.35-74.26
		c0-60.31-23.68-90.49-71.03-90.49c-23.23,0-41.33,7.65-54.29,22.97c-14.23,16.74-21.34,41.41-21.34,74c0,32.05,6.3,55.56,18.9,70.5
		c11.53,13.5,28.9,20.26,52.14,20.26c8.67,0,16.63-1.07,23.87-3.2l43.64,25.4L723.89,664.86z M615.31,623.99
		c-7.39-11.88-11.08-30.95-11.08-57.25c0-45.91,13.96-68.88,41.86-68.88c14.59,0,25.3,5.49,32.15,16.47
		c7.38,11.89,11.07,30.8,11.07,56.72c0,46.28-13.96,69.42-41.86,69.42C632.87,640.48,622.15,634.99,615.31,623.99"/>
	<path class="st2" d="M560.73,609.93c0,15.46-5.68,28.15-17.01,38.09c-11.33,9.89-26.56,14.85-45.63,14.85
		c-17.83,0-35.12-5.7-51.86-17.03l7.83-15.66c14.41,7.2,27.45,10.8,39.15,10.8c10.98,0,19.57-2.44,25.79-7.27
		c6.21-4.86,9.92-11.64,9.92-20.25c0-10.83-7.55-20.08-21.4-27.84c-12.79-7.02-38.35-21.67-38.35-21.67
		c-13.85-10.1-20.79-20.94-20.79-38.8c0-14.77,5.18-26.71,15.52-35.79c10.36-9.1,23.74-13.65,40.11-13.65
		c16.92,0,32.31,4.52,46.18,13.52l-7.04,15.65c-11.86-5.03-23.56-7.55-35.09-7.55c-9.35,0-16.57,2.25-21.59,6.77
		c-5.06,4.48-8.18,10.25-8.18,17.27c0,10.8,7.71,20.16,21.95,28.08c12.95,7.02,39.13,21.96,39.13,21.96
		C553.63,581.47,560.73,592.22,560.73,609.93"/>
	<path class="st4" d="M869.88,417.07c-17.63-0.44-31.28,1.32-42.74,6.17c-3.31,1.32-8.58,1.32-9.04,5.51
		c1.77,1.76,1.99,4.62,3.54,7.06c2.64,4.4,7.25,10.34,11.45,13.44c4.62,3.53,9.25,7.04,14.11,10.12
		c8.58,5.31,18.28,8.38,26.64,13.67c4.86,3.08,9.69,7.04,14.56,10.36c2.41,1.76,3.94,4.63,7.04,5.72v-0.67
		c-1.55-1.98-1.99-4.84-3.52-7.06c-2.2-2.19-4.41-4.18-6.61-6.38c-6.39-8.59-14.33-16.07-22.9-22.24
		c-7.06-4.86-22.49-11.47-25.34-19.59c0,0-0.23-0.23-0.45-0.45c4.84-0.45,10.59-2.21,15.21-3.55c7.48-1.98,14.31-1.53,22.02-3.51
		c3.53-0.89,7.06-2,10.59-3.08v-1.99c-3.99-3.96-6.84-9.25-11.02-12.99c-11.22-9.69-23.58-19.15-36.35-27.1
		c-6.84-4.41-15.65-7.26-22.92-11.01c-2.63-1.32-7.03-1.98-8.58-4.19c-3.97-4.84-6.18-11.22-9.04-16.96
		c-6.38-12.1-12.56-25.53-18.06-38.33c-3.96-8.59-6.39-17.17-11.23-25.11c-22.7-37.46-47.37-60.13-85.25-82.39
		c-8.15-4.64-17.84-6.61-28.19-9.04c-5.52-0.23-11.02-0.66-16.52-0.88c-3.53-1.55-7.06-5.74-10.14-7.72
		c-12.56-7.93-44.93-25.11-54.19-2.42c-5.95,14.33,8.81,28.42,13.88,35.69c3.74,5.06,8.6,10.8,11.22,16.52
		c1.54,3.75,1.99,7.72,3.53,11.68c3.52,9.69,6.82,20.49,11.45,29.53c2.42,4.63,5.06,9.48,8.14,13.64c1.78,2.44,4.85,3.53,5.52,7.5
		c-3.07,4.4-3.31,11.01-5.07,16.52c-7.92,24.89-4.84,55.73,6.39,74.01c3.52,5.51,11.9,17.63,23.13,12.99
		c9.91-3.96,7.71-16.52,10.57-27.52c0.66-2.66,0.22-4.41,1.53-6.17v0.45c3.08,6.16,6.17,12.09,9.04,18.28
		c6.84,10.78,18.72,22.02,28.65,29.5c5.27,3.98,9.46,10.8,16.07,13.23v-0.67h-0.44c-1.32-1.98-3.3-2.86-5.07-4.4
		c-3.97-3.97-8.36-8.82-11.46-13.22c-9.25-12.33-17.41-26-24.66-40.09c-3.53-6.84-6.61-14.33-9.48-21.15
		c-1.32-2.63-1.32-6.61-3.53-7.92c-3.31,4.84-8.15,9.03-10.57,14.96c-4.19,9.48-4.62,21.16-6.18,33.28c-0.88,0.23-0.44,0-0.88,0.44
		c-7.04-1.76-9.46-9.03-12.12-15.18c-6.6-15.66-7.72-40.77-1.98-58.84c1.54-4.62,8.16-19.16,5.51-23.56
		c-1.33-4.2-5.73-6.6-8.15-9.92c-2.86-4.19-5.96-9.46-7.92-14.1c-5.29-12.33-7.95-26-13.66-38.33c-2.65-5.74-7.28-11.69-11.01-16.96
		c-4.2-5.95-8.82-10.13-12.13-17.17c-1.09-2.43-2.64-6.4-0.88-9.03c0.44-1.77,1.33-2.43,3.09-2.87c2.85-2.42,11.01,0.66,13.87,1.98
		c8.15,3.29,14.98,6.4,21.81,11.01c3.09,2.21,6.39,6.39,10.35,7.5h4.63c7.05,1.53,14.98,0.43,21.6,2.42
		c11.67,3.74,22.24,9.25,31.72,15.2c28.85,18.29,52.64,44.29,68.72,75.34c2.65,5.06,3.76,9.69,6.18,14.97
		c4.63,10.82,10.36,21.83,14.98,32.39c4.62,10.36,9.04,20.92,15.66,29.52c3.3,4.62,16.52,7.04,22.47,9.47
		c4.39,1.98,11.23,3.74,15.2,6.16c7.49,4.62,14.97,9.91,22.03,14.99C858.2,407.16,869.22,412.66,869.88,417.07"/>
	<path class="st2" d="M890.87,660.44h4.56V638.1h-6.85L883,653.33l-6.07-15.23h-6.6v22.34h4.31v-17h0.25l6.36,17h3.29l6.35-17
		V660.44z M854.09,660.44h4.83V641.9h6.33v-3.79h-17.73v3.79h6.57V660.44z"/>
</g>
</svg>
