<?xml version="1.0" encoding="utf-8"?>
<!-- Generator: Adobe Illustrator 27.2.0, SVG Export Plug-In . SVG Version: 6.00 Build 0)  -->
<svg version="1.1" id="Layer_1" xmlns="http://www.w3.org/2000/svg" xmlns:xlink="http://www.w3.org/1999/xlink" x="0px" y="0px"
	 viewBox="0 0 960 960" style="enable-background:new 0 0 960 960;" xml:space="preserve">
<style type="text/css">
	.st0{fill:#F2F2F2;}
</style>
<rect class="st0" width="960" height="960"/>
<path d="M756.3,624.23v25.74h-55.33v135.43h-27.66V649.97h-56.48v-25.74H756.3z M762.52,770.06c1.95,0,3.65,0.7,5.1,2.11
	c1.47,1.41,2.19,3.08,2.21,5.04c-0.02,1.33-0.36,2.55-1.03,3.64c-0.69,1.11-1.57,1.97-2.68,2.6c-1.08,0.65-2.29,0.98-3.6,0.98
	c-2.03,0-3.75-0.7-5.19-2.11s-2.16-3.1-2.14-5.12c-0.02-1.96,0.7-3.64,2.14-5.04C758.77,770.77,760.5,770.06,762.52,770.06
	L762.52,770.06z M214.19,785.41L112.18,658.62v126.73H84.51V624.17h34.58l128.88,160.04V649.98l-0.01-25.74h139.48v25.74h-111.8
	v41.41h89.91v25.74h-89.91v42.53h111.8v25.74L214.19,785.41L214.19,785.41z M476.1,716.89l18.13,22.55l-37.15,46.17h-36.31
	L476.1,716.89L476.1,716.89z M457.09,624.31l46.81,58.13l46.66-57.96l36.21-0.05l-64.75,80.52l64.85,80.53h-36.31L420.89,624.3
	L457.09,624.31L457.09,624.31z M809.74,716.54H822v47.23c-0.02,4.34-0.96,8.05-2.8,11.17c-1.85,3.12-4.43,5.5-7.72,7.19
	c-3.28,1.66-7.12,2.52-11.49,2.52c-3.99,0-7.57-0.72-10.76-2.12c-3.19-1.41-5.71-3.51-7.57-6.28c-1.88-2.77-2.8-6.23-2.8-10.36
	h12.28c0.02,1.81,0.43,3.38,1.21,4.69s1.88,2.31,3.26,3.01c1.41,0.7,3.02,1.06,4.84,1.06c1.97,0,3.66-0.41,5.02-1.24
	c1.37-0.81,2.42-2.04,3.15-3.66c0.71-1.61,1.08-3.6,1.11-5.97L809.74,716.54L809.74,716.54z M872.45,735.01
	c-0.3-2.87-1.62-5.1-3.9-6.68c-2.31-1.61-5.28-2.4-8.94-2.4c-2.57,0-4.78,0.38-6.61,1.14c-1.83,0.78-3.26,1.81-4.24,3.12
	c-0.97,1.31-1.46,2.8-1.5,4.49c0,1.41,0.34,2.62,1,3.64c0.66,1.03,1.54,1.9,2.68,2.6c1.13,0.72,2.38,1.31,3.75,1.79
	c1.39,0.48,2.78,0.89,4.16,1.22l6.39,1.57c2.57,0.59,5.07,1.39,7.44,2.4c2.38,1,4.53,2.27,6.43,3.81c1.9,1.54,3.4,3.38,4.5,5.54
	c1.11,2.16,1.67,4.69,1.67,7.61c0,3.93-1.01,7.39-3.06,10.38c-2.04,2.97-4.99,5.3-8.85,6.98c-3.84,1.66-8.49,2.52-13.97,2.52
	c-5.48,0-9.9-0.81-13.78-2.44c-3.9-1.61-6.94-3.97-9.13-7.08c-2.19-3.1-3.37-6.89-3.55-11.34h12.15c0.17,2.32,0.92,4.26,2.19,5.84
	c1.29,1.55,2.98,2.7,5.04,3.48c2.08,0.76,4.4,1.14,6.97,1.14c2.57,0,5.04-0.41,7.08-1.2c2.03-0.79,3.62-1.9,4.76-3.35
	c1.16-1.42,1.75-3.1,1.76-5.02c-0.02-1.76-0.54-3.21-1.55-4.36c-1.03-1.14-2.45-2.11-4.27-2.88c-1.83-0.78-3.97-1.48-6.41-2.09
	l-7.76-1.96c-5.61-1.42-10.05-3.58-13.29-6.48c-3.26-2.9-4.87-6.74-4.87-11.57c0-3.96,1.08-7.42,3.28-10.39
	c2.18-2.97,5.15-5.28,8.92-6.93c3.78-1.66,8.06-2.47,12.82-2.47c4.76,0,9.08,0.81,12.73,2.47c3.65,1.64,6.53,3.93,8.6,6.85
	c2.08,2.92,3.17,6.26,3.22,10.05L872.45,735.01L872.45,735.01z"/>
<path d="M452.88,141.68c-0.86,0.08-3.6,0.35-6.06,0.55c-56.87,5.13-110.13,35.81-143.87,82.96c-18.79,26.21-30.8,55.96-35.34,87.46
	c-1.61,11-1.8,14.25-1.8,29.15c0,14.9,0.19,18.16,1.8,29.15c10.88,75.18,64.38,138.33,136.94,161.73
	c12.99,4.18,26.69,7.04,42.27,8.76c6.06,0.66,32.29,0.66,38.36,0c26.89-2.97,49.67-9.63,72.13-21.1c3.44-1.76,4.11-2.23,3.64-2.62
	c-0.31-0.24-14.99-19.92-32.6-43.71l-32.01-43.24l-40.11-59.36c-22.07-32.63-40.23-59.32-40.39-59.32
	c-0.16-0.03-0.31,26.34-0.39,58.54c-0.11,56.39-0.16,58.66-0.86,59.98c-1.01,1.92-1.8,2.7-3.44,3.56c-1.25,0.63-2.35,0.74-8.25,0.74
	h-6.77l-1.8-1.14c-1.17-0.74-2.04-1.72-2.62-2.86l-0.82-1.76l0.08-78.46l0.11-78.49l1.21-1.53c0.63-0.82,1.96-1.88,2.9-2.38
	c1.61-0.79,2.23-0.86,9-0.86c7.98,0,9.31,0.31,11.39,2.59c0.59,0.63,22.31,33.34,48.3,72.75s61.52,93.21,78.98,119.63l31.7,48.02
	l1.61-1.06c14.2-9.23,29.24-22.38,41.13-36.08c25.32-29.07,41.64-64.53,47.12-102.33c1.61-11,1.8-14.25,1.8-29.15
	c0-14.9-0.19-18.16-1.8-29.15C653.5,237.47,600,174.31,527.44,150.91c-12.8-4.15-26.42-7.01-41.68-8.73
	C482,141.79,456.13,141.37,452.88,141.68L452.88,141.68L452.88,141.68z M534.83,262.75c1.88,0.94,3.41,2.74,3.96,4.62
	c0.31,1.01,0.39,22.77,0.31,71.8l-0.11,70.36l-12.4-19.02l-12.45-19.02v-51.14c0-33.06,0.16-51.65,0.39-52.55
	c0.63-2.19,2-3.91,3.88-4.93c1.61-0.82,2.19-0.9,8.33-0.9c5.79,0,6.81,0.08,8.1,0.79L534.83,262.75z"/>
</svg>
