<?xml version="1.0" encoding="utf-8"?>
<!-- Generator: Adobe Illustrator 27.2.0, SVG Export Plug-In . SVG Version: 6.00 Build 0)  -->
<svg version="1.1" id="Layer_1" xmlns="http://www.w3.org/2000/svg" xmlns:xlink="http://www.w3.org/1999/xlink" x="0px" y="0px"
	 viewBox="0 0 1000 1000" style="enable-background:new 0 0 1000 1000;" xml:space="preserve">
<style type="text/css">
	.st0{fill:#529E45;}
	.st1{fill:#FFFFFF;}
</style>
<rect y="0" class="st0" width="1000" height="1000"/>
<g>
	<path class="st1" d="M500,887.96c-10.69,0-20.67-2.85-29.94-7.84l-94.81-56.31c-14.26-7.84-7.13-10.69-2.85-12.12
		c19.25-6.42,22.81-7.84,42.77-19.25c2.14-1.43,4.99-0.71,7.13,0.71l72.71,43.48c2.85,1.43,6.42,1.43,8.55,0l284.42-164.66
		c2.85-1.43,4.28-4.28,4.28-7.84V335.51c0-3.56-1.43-6.42-4.28-7.84L503.56,163.72c-2.85-1.43-6.42-1.43-8.55,0L210.59,327.67
		c-2.85,1.43-4.28,4.99-4.28,7.84v328.62c0,2.85,1.43,6.42,4.28,7.84l77.7,44.91c42.06,21.38,68.43-3.56,68.43-28.51V364.03
		c0-4.28,3.56-8.55,8.55-8.55h36.35c4.28,0,8.55,3.56,8.55,8.55v324.34c0,56.31-30.65,89.1-84.11,89.1c-16.4,0-29.23,0-65.58-17.82
		l-74.85-42.77c-18.53-10.69-29.94-30.65-29.94-52.04V336.23c0-21.38,11.41-41.34,29.94-52.04l284.42-164.66
		c17.82-9.98,42.06-9.98,59.88,0l284.42,164.66c18.53,10.69,29.94,30.65,29.94,52.04v328.62c0,21.38-11.41,41.34-29.94,52.04
		L529.94,881.54C520.67,885.82,509.98,887.96,500,887.96L500,887.96z M587.68,661.99c-124.75,0-150.41-57.03-150.41-105.5
		c0-4.28,3.56-8.55,8.55-8.55h37.07c4.28,0,7.84,2.85,7.84,7.13c5.7,37.78,22.1,56.31,97.66,56.31c59.88,0,85.54-13.54,85.54-45.62
		c0-18.53-7.13-32.08-100.51-41.34c-77.7-7.84-126.17-24.95-126.17-86.97c0-57.74,48.47-91.96,129.74-91.96
		c91.24,0,136.15,31.36,141.85,99.8c0,2.14-0.71,4.28-2.14,6.42c-1.43,1.43-3.56,2.85-5.7,2.85h-37.07c-3.56,0-7.13-2.85-7.84-6.42
		c-8.55-39.21-30.65-52.04-89.1-52.04c-65.58,0-73.42,22.81-73.42,39.92c0,20.67,9.27,27.09,97.66,38.49
		c87.68,11.41,129.02,27.8,129.02,89.1C729.53,626.35,678.21,661.99,587.68,661.99L587.68,661.99z"/>
</g>
</svg>
